<svg width="47" height="47" viewBox="0 0 47 47" fill="none" xmlns="http://www.w3.org/2000/svg">
<g clip-path="url(#clip0_4_35250)">
<path d="M32.451 16.406L20.708 26.0046L20.1554 26.4571C20.034 26.5534 19.9548 26.693 19.9344 26.8466L19.8107 27.8675L19.4713 30.7355C19.4744 30.7704 19.4636 30.8051 19.4411 30.832C19.4187 30.8588 19.3865 30.8757 19.3516 30.8789C19.3167 30.882 19.282 30.8712 19.2551 30.8487C19.2282 30.8262 19.2113 30.794 19.2082 30.7591L18.2531 27.8911L17.2664 24.9574C17.2243 24.8259 17.2296 24.6838 17.2816 24.5559C17.3335 24.428 17.4287 24.3224 17.5505 24.2575L29.7698 17.2532L32.0695 15.9376C32.4036 15.7429 32.7457 16.1639 32.451 16.406Z" fill="black"/>
<path d="M32.451 16.406L20.708 26.0046L20.1554 26.4571C20.034 26.5534 19.9548 26.693 19.9344 26.8466L19.8107 27.8675L19.4713 30.7355C19.4744 30.7704 19.4636 30.8051 19.4411 30.832C19.4187 30.8588 19.3865 30.8757 19.3516 30.8789C19.3167 30.882 19.282 30.8712 19.2551 30.8487C19.2282 30.8262 19.2113 30.794 19.2082 30.7591L18.2531 27.8911L17.2664 24.9574C17.2243 24.8259 17.2296 24.6838 17.2816 24.5559C17.3335 24.428 17.4287 24.3224 17.5505 24.2575L29.7698 17.2532L32.0695 15.9376C32.4036 15.7429 32.7457 16.1639 32.451 16.406Z" fill="url(#paint0_linear_4_35250)"/>
<path d="M39.9941 0H6.31487C4.64006 0 3.03385 0.665314 1.84958 1.84958C0.665314 3.03385 0 4.64006 0 6.31487L0 39.9941C0 41.669 0.665314 43.2752 1.84958 44.4594C3.03385 45.6437 4.64006 46.309 6.31487 46.309H39.9941C41.669 46.309 43.2752 45.6437 44.4594 44.4594C45.6437 43.2752 46.309 41.669 46.309 39.9941V6.31487C46.309 4.64006 45.6437 3.03385 44.4594 1.84958C43.2752 0.665314 41.669 0 39.9941 0ZM37.5971 13.4033L33.0767 33.3767C32.8636 34.3134 31.6743 34.737 30.8402 34.1661L24.0149 29.5352L20.5391 32.8215C20.3974 32.9545 20.2253 33.0509 20.0379 33.1024C19.8505 33.1538 19.6533 33.1587 19.4636 33.1167C19.2738 33.0747 19.0972 32.9871 18.949 32.8614C18.8007 32.7356 18.6854 32.5756 18.6131 32.3953L17.358 28.7116L16.1029 25.0279L9.37494 23.1861C9.18683 23.145 9.01756 23.0429 8.89344 22.8957C8.76932 22.7485 8.69731 22.5645 8.68861 22.3721C8.67991 22.1798 8.735 21.9899 8.84532 21.8321C8.95564 21.6743 9.115 21.5574 9.29864 21.4995L35.2896 12.1351L35.7685 11.964C36.7762 11.6115 37.8181 12.4271 37.5971 13.4033Z" fill="black"/>
<path d="M39.9941 0H6.31487C4.64006 0 3.03385 0.665314 1.84958 1.84958C0.665314 3.03385 0 4.64006 0 6.31487L0 39.9941C0 41.669 0.665314 43.2752 1.84958 44.4594C3.03385 45.6437 4.64006 46.309 6.31487 46.309H39.9941C41.669 46.309 43.2752 45.6437 44.4594 44.4594C45.6437 43.2752 46.309 41.669 46.309 39.9941V6.31487C46.309 4.64006 45.6437 3.03385 44.4594 1.84958C43.2752 0.665314 41.669 0 39.9941 0ZM37.5971 13.4033L33.0767 33.3767C32.8636 34.3134 31.6743 34.737 30.8402 34.1661L24.0149 29.5352L20.5391 32.8215C20.3974 32.9545 20.2253 33.0509 20.0379 33.1024C19.8505 33.1538 19.6533 33.1587 19.4636 33.1167C19.2738 33.0747 19.0972 32.9871 18.949 32.8614C18.8007 32.7356 18.6854 32.5756 18.6131 32.3953L17.358 28.7116L16.1029 25.0279L9.37494 23.1861C9.18683 23.145 9.01756 23.0429 8.89344 22.8957C8.76932 22.7485 8.69731 22.5645 8.68861 22.3721C8.67991 22.1798 8.735 21.9899 8.84532 21.8321C8.95564 21.6743 9.115 21.5574 9.29864 21.4995L35.2896 12.1351L35.7685 11.964C36.7762 11.6115 37.8181 12.4271 37.5971 13.4033Z" fill="url(#paint1_linear_4_35250)"/>
</g>
<defs>
<linearGradient id="paint0_linear_4_35250" x1="17.2383" y1="23.3835" x2="32.5631" y2="23.3835" gradientUnits="userSpaceOnUse">
<stop stop-color="#FF0100"/>
<stop offset="1" stop-color="#D00707"/>
</linearGradient>
<linearGradient id="paint1_linear_4_35250" x1="0" y1="23.1545" x2="46.309" y2="23.1545" gradientUnits="userSpaceOnUse">
<stop stop-color="#FF0100"/>
<stop offset="1" stop-color="#D00707"/>
</linearGradient>
<clipPath id="clip0_4_35250">
<rect width="46.309" height="46.309" fill="white"/>
</clipPath>
</defs>
</svg>
