<svg width="48" height="47" viewBox="0 0 48 47" fill="none" xmlns="http://www.w3.org/2000/svg">
<g clip-path="url(#clip0_4_35247)">
<path d="M25.546 22.3637L35.9672 37.2698H31.6903L23.1864 25.1064V25.1056L21.9379 23.3201L12.0039 9.11035H16.2808L24.2975 20.5782L25.546 22.3637Z" fill="black"/>
<path d="M25.546 22.3637L35.9672 37.2698H31.6903L23.1864 25.1064V25.1056L21.9379 23.3201L12.0039 9.11035H16.2808L24.2975 20.5782L25.546 22.3637Z" fill="url(#paint0_linear_4_35247)"/>
<path d="M42.149 0H5.84754C3.08409 0 0.84375 2.24034 0.84375 5.00379V41.3052C0.84375 44.0687 3.08409 46.309 5.84754 46.309H42.149C44.9124 46.309 47.1528 44.0687 47.1528 41.3052V5.00379C47.1528 2.24034 44.9124 0 42.149 0ZM30.3811 39.271L21.7757 26.7468L11.0015 39.271H8.21696L20.5392 24.948L8.21696 7.01429H17.6154L25.7642 18.8738L35.9665 7.01429H38.7511L27.001 20.673H27.0002L39.7796 39.271H30.3811Z" fill="black"/>
<path d="M42.149 0H5.84754C3.08409 0 0.84375 2.24034 0.84375 5.00379V41.3052C0.84375 44.0687 3.08409 46.309 5.84754 46.309H42.149C44.9124 46.309 47.1528 44.0687 47.1528 41.3052V5.00379C47.1528 2.24034 44.9124 0 42.149 0ZM30.3811 39.271L21.7757 26.7468L11.0015 39.271H8.21696L20.5392 24.948L8.21696 7.01429H17.6154L25.7642 18.8738L35.9665 7.01429H38.7511L27.001 20.673H27.0002L39.7796 39.271H30.3811Z" fill="url(#paint1_linear_4_35247)"/>
</g>
<defs>
<linearGradient id="paint0_linear_4_35247" x1="12.0039" y1="23.1901" x2="35.9672" y2="23.1901" gradientUnits="userSpaceOnUse">
<stop stop-color="#FF0100"/>
<stop offset="1" stop-color="#D00707"/>
</linearGradient>
<linearGradient id="paint1_linear_4_35247" x1="0.84375" y1="23.1545" x2="47.1528" y2="23.1545" gradientUnits="userSpaceOnUse">
<stop stop-color="#FF0100"/>
<stop offset="1" stop-color="#D00707"/>
</linearGradient>
<clipPath id="clip0_4_35247">
<rect width="46.309" height="46.309" fill="white" transform="translate(0.84375)"/>
</clipPath>
</defs>
</svg>
